<?xml version="1.0" encoding="utf-8"?>
<!-- Generator: Adobe Illustrator 16.0.3, SVG Export Plug-In . SVG Version: 6.00 Build 0)  -->
<!DOCTYPE svg PUBLIC "-//W3C//DTD SVG 1.1//EN" "http://www.w3.org/Graphics/SVG/1.1/DTD/svg11.dtd">
<svg version="1.1" id="Ebene_1" xmlns="http://www.w3.org/2000/svg" xmlns:xlink="http://www.w3.org/1999/xlink" x="0px" y="0px"
	 width="230px" height="60px" viewBox="0 0 230 60" enable-background="new 0 0 230 60" xml:space="preserve">
<g>
	<g>
		<path fill="#004B7C" d="M225.3,52.183c-1.049,0-1.832,0-2.458-0.38c-0.965-0.582-1.388-1.522-1.388-2.932
			c0-2.729,1.187-3.403,3.846-3.403h3.312v-2.549h-4.229c-1.946,0-3.335,0.356-4.431,1.411c-1.094,1.052-1.743,2.686-1.743,4.541
			c0,1.764,0.67,3.379,1.743,4.431c1.096,1.072,2.484,1.411,4.431,1.411h4.229v-2.53H225.3z M211.358,45.269v9.444h3.218v-9.444
			h2.953v-2.35h-2.953V41.98c0-0.807,0.494-1.05,1.477-1.05h1.477v-2.284h-2.953c-2.527,0-3.218,0.669-3.218,3.065v1.207h-2.24v2.35
			H211.358z M204.562,52.183h-2.123c-2.307,0-3.224-0.827-3.224-3.288c0-2.554,1.055-3.427,3.468-3.427h1.879V52.183z
			 M207.674,54.713V38.646h-3.112v4.272H201.9c-2.127,0-3.558,0.403-4.676,1.812c-0.85,1.075-1.276,2.373-1.276,3.938
			c0,3.76,2.081,6.045,5.75,6.045H207.674z M187.38,52.34c-1.141,0-1.7-0.135-1.7-1.119c0-1.054,0.603-1.322,1.925-1.322h3.668
			v2.441H187.38z M183.241,42.919v2.441h5.191c1.97,0,2.818,0.401,2.818,1.9v0.29h-4.095c-3.291,0-4.7,1.03-4.7,3.761
			c0,2.169,1.3,3.401,3.646,3.401h8.369v-7.385c0-2.91-1.634-4.409-4.854-4.409H183.241z"/>
		<path fill-rule="evenodd" clip-rule="evenodd" fill="#004B7C" d="M80.32,25.073c0,3.369-1.942,5.507-5.031,5.507h-3.926V19.525
			h3.926C78.696,19.525,80.32,21.311,80.32,25.073 M85.75,24.678c0-5.865-3.567-9.272-9.669-9.272h-4.717V8.271h-5.309v26.434h8.638
			c3.487,0,5.033-0.317,6.817-1.428C84.282,31.572,85.75,28.601,85.75,24.678"/>
		<path fill-rule="evenodd" clip-rule="evenodd" fill="#004B7C" d="M120.309,34.705v-4.125h-2.101c-2.297,0-2.814-0.712-2.814-4.042
			v-7.012h4.915v-4.122h-4.915V8.271h-5.31v19.18c0,5.311,1.706,7.254,6.378,7.254H120.309z"/>
		<path fill-rule="evenodd" clip-rule="evenodd" fill="#004B7C" d="M175.229,25.073c0,3.369-1.942,5.507-5.03,5.507h-3.925V19.525
			h3.925C173.606,19.525,175.229,21.311,175.229,25.073 M180.659,24.678c0-5.865-3.565-9.272-9.666-9.272h-4.719V8.271h-5.311
			v26.434h8.641c3.485,0,5.031-0.317,6.814-1.428C179.191,31.572,180.659,28.601,180.659,24.678"/>
		<path fill-rule="evenodd" clip-rule="evenodd" fill="#004B7C" d="M188.608,15.406H183.3v19.299h5.309V15.406z M188.608,8.271
			H183.3v5.153h5.309V8.271z"/>
		<path fill-rule="evenodd" clip-rule="evenodd" fill="#004B7C" d="M99.62,27.095c1.943,0,3.484-0.161,4.354-0.438
			c2.102-0.672,3.529-2.854,3.529-5.509c0-1.982-0.794-3.687-2.221-4.717c-1.19-0.872-2.178-1.029-6.302-1.029l-1.565,0.002
			c-2.614,0-4.379,0.396-5.843,1.387c-2.337,1.544-3.765,4.637-3.765,8.084c0,3.486,1.188,6.261,3.487,8.003
			c1.742,1.35,3.447,1.822,6.5,1.822h8.971v-4.119h-8.417c-3.25,0-4.479-0.913-4.675-3.487H99.62z M93.673,22.973
			c0.235-2.654,1.228-3.446,4.121-3.446l1.476-0.002c2.099,0,2.843,0.441,2.843,1.669c0,1.109-0.753,1.784-1.983,1.784h-0.872
			L93.673,22.973z"/>
		<path fill-rule="evenodd" clip-rule="evenodd" fill="#004B7C" d="M132.857,34.705v-4.125h-2.102c-2.297,0-2.813-0.712-2.813-4.042
			v-7.012h4.915v-4.122h-4.915V8.271h-5.31v19.18c0,5.311,1.705,7.254,6.379,7.254H132.857z"/>
		<path fill-rule="evenodd" clip-rule="evenodd" fill="#004B7C" d="M221.407,27.095c1.941,0,3.483-0.161,4.354-0.438
			c2.1-0.672,3.523-2.854,3.523-5.509c0-1.982-0.79-3.687-2.217-4.717c-1.189-0.872-2.178-1.029-6.302-1.029l-1.563,0.002
			c-2.614,0-4.379,0.396-5.845,1.387c-2.337,1.544-3.765,4.637-3.765,8.084c0,3.486,1.188,6.261,3.486,8.003
			c1.744,1.35,3.446,1.822,6.499,1.822h8.973v-4.119h-8.417c-3.249,0-4.479-0.913-4.676-3.487H221.407z M215.459,22.973
			c0.235-2.654,1.229-3.446,4.12-3.446l1.477-0.002c2.101,0,2.844,0.441,2.844,1.669c0,1.109-0.754,1.784-1.98,1.784h-0.875
			L215.459,22.973z"/>
		<polygon fill-rule="evenodd" clip-rule="evenodd" fill="#004B7C" points="201.389,25.057 210.907,34.705 204.963,34.705 
			197.87,27.054 197.87,34.705 192.561,34.705 192.561,8.271 197.87,8.271 197.87,23.053 204.963,15.406 210.907,15.406 		"/>
		<path fill="#004B7C" d="M29.126,0c-2.081,0-4.113,0.218-6.08,0.629c0.999-0.109,2.012-0.167,3.04-0.167
			c15.522,0,28.15,12.628,28.15,28.148c0,15.518-12.628,28.146-28.15,28.146c-7.748,0-14.775-3.146-19.869-8.227
			c5.447,6.607,13.695,10.827,22.909,10.827c16.368,0,29.682-13.313,29.682-29.676C58.809,13.314,45.495,0,29.126,0"/>
	</g>
	<g>
		<polygon fill-rule="evenodd" clip-rule="evenodd" fill="#EE7F00" points="157.077,22.931 157.077,19.948 149.543,18.685 
			148.281,11.604 145.068,11.604 143.811,18.685 136.217,19.948 136.217,22.931 143.811,24.194 145.068,31.33 148.281,31.33 
			149.543,24.194 		"/>
		<path fill="#EE7F00" d="M31.548,53.979c-0.744,0.071-1.496,0.111-2.259,0.111c-13.374,0-24.253-10.882-24.253-24.253
			c0-13.373,10.879-24.253,24.253-24.253c6.555,0,12.505,2.616,16.874,6.858C41.407,6.519,34.11,2.719,25.938,2.719
			C11.636,2.719,0,14.356,0,28.66s11.636,25.939,25.938,25.939C27.865,54.599,29.743,54.381,31.548,53.979"/>
		<polygon fill-rule="evenodd" clip-rule="evenodd" fill="#EE7F00" points="28.862,32.759 28.862,31.459 21.328,29.354 
			19.225,22.273 17.699,22.273 15.594,29.354 8.003,31.459 8.003,32.759 15.594,34.864 17.699,42.001 19.225,42.001 21.328,34.864 
					"/>
		<polygon fill-rule="evenodd" clip-rule="evenodd" fill="#EE7F00" points="37.971,20.536 37.971,19.627 32.697,18.155 
			31.223,13.197 30.154,13.197 28.68,18.155 23.368,19.627 23.368,20.536 28.68,22.008 30.154,27.007 31.223,27.007 32.697,22.008 
					"/>
		<polygon fill-rule="evenodd" clip-rule="evenodd" fill="#EE7F00" points="46.203,29.154 46.203,28.516 42.511,27.487 
			41.48,24.015 40.732,24.015 39.703,27.487 35.981,28.516 35.981,29.154 39.703,30.183 40.732,33.681 41.48,33.681 42.511,30.183 
					"/>
	</g>
</g>
</svg>
